HIERARCHY
ROOT Hips
{
	OFFSET 0.000000 0.000000 0.000000 
	CHANNELS 6 Xposition Yposition Zposition Zrotation Yrotation Xrotation
	JOINT LeftUpLeg
	{
		OFFSET 1.363060 -1.794630 0.839290 
		CHANNELS 3 Zrotation Yrotation Xrotation
		JOINT LeftLeg
		{
			OFFSET 2.448110 -6.726130 0.000000 
			CHANNELS 3 Zrotation Yrotation Xrotation
			JOINT LeftFoot
			{
				OFFSET 2.562200 -7.039590 0.000000 
				CHANNELS 3 Zrotation Yrotation Xrotation
				JOINT LeftToeBase
				{
					OFFSET 0.157640 -0.433110 2.322550 
					CHANNELS 3 Zrotation Yrotation Xrotation
					End Site
					{
						OFFSET 0.000000 0.000000 0.000000 
					}
				}
			}
		}
	}
	JOINT RightUpLeg
	{
		OFFSET -1.305520 -1.794630 0.839290 
		CHANNELS 3 Zrotation Yrotation Xrotation
		JOINT RightLeg
		{
			OFFSET -2.542530 -6.985550 0.000000 
			CHANNELS 3 Zrotation Yrotation Xrotation
			JOINT RightFoot
			{
				OFFSET -2.568260 -7.056230 0.000000 
				CHANNELS 3 Zrotation Yrotation Xrotation
				JOINT RightToeBase
				{
					OFFSET -0.164730 -0.452590 2.363150 
					CHANNELS 3 Zrotation Yrotation Xrotation
					End Site
					{
						OFFSET 0.000000 0.000000 0.000000 
					}
				}
			}
		}
	}
	JOINT Spine
	{
		OFFSET 0.028270 2.035590 -0.193380 
		CHANNELS 3 Zrotation Yrotation Xrotation
		JOINT Spine1
		{
			OFFSET 0.056720 2.048850 -0.042750 
			CHANNELS 3 Zrotation Yrotation Xrotation
			JOINT Neck1
			{
				OFFSET -0.054170 1.746240 0.172020 
				CHANNELS 3 Zrotation Yrotation Xrotation
				JOINT Head
				{
					OFFSET 0.104070 1.761360 -0.123970 
					CHANNELS 3 Zrotation Yrotation Xrotation
					End Site
					{
						OFFSET 0.000000 0.000000 0.000000 
					}
				}
			}
			JOINT LeftArm
			{
				OFFSET 3.362410 1.200890 -0.311210 
				CHANNELS 3 Zrotation Yrotation Xrotation
				JOINT LeftForeArm
				{
					OFFSET 4.983000 -0.000000 -0.000000 
					CHANNELS 3 Zrotation Yrotation Xrotation
					JOINT LeftHand
					{
						OFFSET 3.483560 -0.000000 -0.000000 
						CHANNELS 3 Zrotation Yrotation Xrotation
						JOINT LeftHandIndex1
						{
							OFFSET 0.715260 -0.000000 -0.000000 
							CHANNELS 3 Zrotation Yrotation Xrotation
							End Site
							{
								OFFSET 0.000000 0.000000 0.000000 
							}
						}
					}
				}
			}
			JOINT RightArm
			{
				OFFSET -3.136600 1.374050 -0.404650 
				CHANNELS 3 Zrotation Yrotation Xrotation
				JOINT RightForeArm
				{
					OFFSET -5.241900 -0.000000 -0.000000 
					CHANNELS 3 Zrotation Yrotation Xrotation
					JOINT RightHand
					{
						OFFSET -3.444170 -0.000000 -0.000000 
						CHANNELS 3 Zrotation Yrotation Xrotation
						JOINT RightHandIndex1
						{
							OFFSET -0.622530 -0.000000 -0.000000 
							CHANNELS 3 Zrotation Yrotation Xrotation
							End Site
							{
								OFFSET 0.000000 0.000000 0.000000 
							}
						}
					}
				}
			}
		}
	}
}
MOTION
Frames: 18
Frame Time: 0.041667
-3.548228 17.824258 -5.442785 -6.590414 1.417166 6.803655 -5.893742 1.504594 -16.478704 1.903803 10.519776 30.973924 -3.585867 15.256303 -18.636343 0.053200 -1.489000 -4.095300 17.738973 4.803686 -19.540784 -2.047383 -11.184266 33.074567 -0.805969 0.139200 -7.753229 -0.029300 1.104100 -3.035300 2.949567 -2.032077 -4.503533 -6.810263 -0.426500 6.627444 17.065991 -18.671043 3.672143 8.448300 -8.985400 3.902600 -85.099073 -4.044010 30.696936 3.345814 -16.851802 -0.934486 -0.255459 -0.359081 0.634797 -7.125000 0.000000 0.000000 3.655956 -3.119996 -0.047359 4.217908 0.628853 -0.000115 0.405221 0.069427 -0.000058 0.000000 0.000000 0.000000 
-3.557314 17.823845 -5.438861 -6.567729 1.533927 6.787641 -5.869668 1.499699 -16.480663 1.907469 10.523177 30.981972 -3.559056 15.155911 -18.542389 0.052400 -1.477000 -4.062300 17.755277 4.779902 -19.524873 -2.050038 -11.186952 33.084421 -0.797903 0.095101 -7.828964 -0.027200 1.064800 -2.927000 2.950364 -2.037556 -4.517053 -6.803402 -0.432517 6.572919 17.044886 -18.724643 3.664006 8.450600 -9.020300 3.883500 -85.070898 -3.882343 30.481011 3.298709 -16.784623 -0.924373 -0.258893 -0.360166 0.725210 -7.125000 0.000000 0.000000 3.657890 -3.122599 -0.047411 4.217737 0.628391 -0.000115 0.405162 0.069384 -0.000058 0.000000 0.000000 0.000000 
-3.565265 17.823742 -5.434525 -6.584738 1.658168 6.785703 -5.808902 1.482147 -16.489818 1.909445 10.522411 30.974956 -3.556089 15.117531 -18.446491 0.054500 -1.506900 -4.144600 17.813445 4.731899 -19.533577 -2.053729 -11.190505 33.099533 -0.786600 0.045957 -7.881553 -0.027700 1.075400 -2.956300 2.958634 -2.048727 -4.529755 -6.788250 -0.438359 6.530895 17.073465 -18.753276 3.647170 8.483200 -9.042500 3.868600 -85.078458 -3.729020 30.229443 3.263293 -16.736803 -0.918288 -0.261059 -0.361501 0.809301 -7.125000 0.000000 0.000000 3.660475 -3.124980 -0.047443 4.217312 0.627920 -0.000115 0.405048 0.069338 -0.000058 0.000000 0.000000 0.000000 
-3.573731 17.823225 -5.429878 -6.552657 1.792679 6.768842 -5.798999 1.466075 -16.480121 1.910623 10.522100 30.968847 -3.562541 15.104658 -18.339958 0.059200 -1.569300 -4.316900 17.818343 4.687297 -19.515867 -2.057452 -11.196044 33.114704 -0.772513 -0.020035 -7.955797 -0.028600 1.091700 -3.001300 2.961794 -2.070604 -4.524276 -6.774860 -0.447995 6.568071 17.072057 -18.823505 3.645123 8.472100 -9.074300 3.885100 -85.053671 -3.674019 30.064231 3.232126 -16.695008 -0.912092 -0.263930 -0.361955 0.770194 -7.125000 0.000000 0.000000 3.662243 -3.123650 -0.047378 4.216950 0.628022 -0.000115 0.404958 0.069342 -0.000057 0.000000 0.000000 0.000000 
-3.581165 17.823225 -5.425542 -6.515731 1.937098 6.762506 -5.796721 1.461572 -16.487807 1.911015 10.520470 30.961834 -3.545574 15.028131 -18.233431 0.060200 -1.583400 -4.355700 17.811885 4.616192 -19.525984 -2.060582 -11.201693 33.127609 -0.765911 -0.056641 -8.012102 -0.027500 1.071200 -2.944700 2.956851 -2.060070 -4.527943 -6.777807 -0.443256 6.566997 17.087912 -18.905388 3.667654 8.480900 -9.121000 3.893100 -85.007770 -3.566280 29.978120 3.224391 -16.690117 -0.910871 -0.265929 -0.363473 0.711720 -7.125000 0.000000 0.000000 3.661704 -3.125664 -0.047354 4.217198 0.627770 -0.000115 0.405007 0.069330 -0.000057 0.000000 0.000000 0.000000 
-3.589219 17.823019 -5.421205 -6.795901 2.070675 6.799911 -5.765441 1.443090 -16.474332 1.913089 10.510328 30.952414 -3.535680 14.977599 -18.123511 0.062500 -1.612800 -4.436700 17.840019 4.559921 -19.562285 -2.058137 -11.224638 33.138053 -0.750131 -0.119611 -8.082259 -0.027200 1.064800 -2.927300 2.207784 -2.129745 -4.460954 -6.390535 -0.550149 6.197117 15.908652 -19.001211 3.046800 8.489400 -9.157800 3.903900 -86.471019 -3.474789 29.563285 3.942442 -15.962378 -0.899039 -0.293197 -0.390557 0.704287 -7.125000 0.000000 0.000000 97.310251 -1.978948 22.074271 -12.903148 25.937736 -3.261066 0.203914 -0.531271 0.267377 7.125000 0.000000 0.000000 
-3.597169 17.822709 -5.416972 -6.778713 2.207403 6.788304 -5.740499 1.430166 -16.474079 1.913537 10.508527 30.942249 -3.530170 14.931897 -18.016464 0.064900 -1.644100 -4.523100 17.859176 4.514272 -19.556493 -2.061393 -11.229033 33.151544 -0.737723 -0.177457 -8.149194 -0.027000 1.059800 -2.913300 2.208589 -2.133946 -4.464315 -6.382648 -0.552270 6.195692 15.927072 -19.069939 3.068402 8.497300 -9.195700 3.919800 -86.443573 -3.371719 29.432591 3.939097 -15.964028 -0.899044 -0.295089 -0.391699 0.670984 -7.125000 0.000000 0.000000 97.282312 -1.936032 22.243165 -13.041399 26.096804 -3.304973 0.210054 -0.527507 0.045370 7.125000 0.000000 0.000000 
-3.605120 17.822399 -5.412739 -6.762567 2.346714 6.774203 -5.714477 1.413941 -16.471250 1.914170 10.507359 30.933832 -3.523323 14.883340 -17.911866 0.067200 -1.672600 -4.601600 17.879191 4.469849 -19.546898 -2.064157 -11.232852 33.162806 -0.724257 -0.239037 -8.217622 -0.026600 1.053600 -2.896200 2.208928 -2.136715 -4.466841 -6.376202 -0.553416 6.196793 15.944394 -19.142693 3.095627 8.502800 -9.235500 3.939000 -86.413627 -3.273852 29.321418 3.942489 -15.976735 -0.900522 -0.296872 -0.392833 0.619409 -7.125000 0.000000 0.000000 97.260218 -1.903144 22.473703 -13.165790 26.242475 -3.346364 0.211549 -0.528822 -0.033410 7.125000 0.000000 0.000000 
-3.612967 17.822193 -5.408712 -6.748299 2.491070 6.759656 -5.686192 1.390765 -16.466998 1.914632 10.506084 30.925233 -3.516580 14.835718 -17.809358 0.069500 -1.700300 -4.678000 17.901183 4.424716 -19.536912 -2.066535 -11.236052 33.172547 -0.709888 -0.304369 -8.286786 -0.026300 1.047000 -2.878200 2.209039 -2.138274 -4.469732 -6.371323 -0.554012 6.195477 15.962333 -19.217187 3.123470 8.508500 -9.276500 3.957800 -86.382542 -3.176510 29.229219 3.952593 -16.000434 -0.903591 -0.298515 -0.393965 0.551343 -7.125000 0.000000 0.000000 97.241780 -1.866095 22.655436 -13.286531 26.382123 -3.386358 0.213757 -0.528671 -0.133197 7.125000 0.000000 0.000000 
-3.620710 17.821986 -5.404685 -6.736665 2.640489 6.743642 -5.655139 1.360578 -16.459898 1.915148 10.504881 30.916764 -3.510341 14.790165 -17.708455 0.071700 -1.727800 -4.753900 17.925951 4.378075 -19.525549 -2.068550 -11.238788 33.180718 -0.694581 -0.373061 -8.357396 -0.026000 1.041500 -2.862900 2.209422 -2.140144 -4.472066 -6.367003 -0.554711 6.195161 15.979338 -19.293242 3.150765 8.512600 -9.318000 3.976700 -86.351389 -3.085777 29.155651 3.969108 -16.034181 -0.908103 -0.299988 -0.394978 0.463634 -7.125000 0.000000 0.000000 97.226143 -1.825014 22.831032 -13.410878 26.526108 -3.428940 0.217067 -0.529704 -0.230969 7.125000 0.000000 0.000000 
-3.628351 17.821780 -5.400865 -6.726421 2.795184 6.725926 -5.622683 1.323230 -16.449640 1.915355 10.503757 30.908350 -3.503000 14.742748 -17.610876 0.073800 -1.752600 -4.822400 17.952017 4.327562 -19.513478 -2.070215 -11.241213 33.187750 -0.679026 -0.442621 -8.428742 -0.025700 1.035100 -2.845400 2.210350 -2.143985 -4.473912 -6.361934 -0.556285 6.195423 15.994116 -19.368707 3.174247 8.515300 -9.359000 3.993500 -86.320903 -2.999213 29.102386 3.992894 -16.080038 -0.914412 -0.301293 -0.395947 0.349827 -7.125000 0.000000 0.000000 97.210735 -1.779602 22.999589 -13.527345 26.660299 -3.469301 0.219439 -0.531343 -0.312218 7.125000 0.000000 0.000000 
-3.635785 17.821677 -5.397044 -6.717797 2.954025 6.707362 -5.588796 1.279210 -16.436973 1.915439 10.502494 30.900041 -3.495215 14.695291 -17.517209 0.075700 -1.775400 -4.885500 17.979467 4.271821 -19.502444 -2.071699 -11.243445 33.193938 -0.663577 -0.511789 -8.499014 -0.025400 1.029200 -2.829100 2.211623 -2.148113 -4.475065 -6.356872 -0.558043 6.197678 16.004893 -19.443904 3.193660 8.515700 -9.399600 4.007500 -86.291678 -2.916912 29.066583 4.023718 -16.137455 -0.922437 -0.302276 -0.396890 0.217905 -7.125000 0.000000 0.000000 97.196291 -1.733077 23.169140 -13.641354 26.791858 -3.509776 0.221336 -0.534015 -0.389079 7.125000 0.000000 0.000000 
-3.643013 17.821470 -5.393327 -6.708448 3.117607 6.687631 -5.556210 1.231092 -16.422190 1.915415 10.501303 30.891700 -3.487264 14.647809 -17.423771 0.077700 -1.798700 -4.949500 18.005291 4.209070 -19.492772 -2.073069 -11.245581 33.199428 -0.648974 -0.578057 -8.568014 -0.025100 1.023700 -2.813900 2.212804 -2.151107 -4.475514 -6.351441 -0.559037 6.202210 16.015369 -19.519736 3.209572 8.515700 -9.440100 4.020900 -86.263602 -2.840909 29.055772 4.061455 -16.205846 -0.932215 -0.302868 -0.397829 0.063531 -7.125000 0.000000 0.000000 97.181513 -1.684216 23.330068 -13.751145 26.918461 -3.549390 0.223170 -0.537166 -0.460277 7.125000 0.000000 0.000000 
-3.650034 17.821264 -5.389610 -6.697426 3.285176 6.666178 -5.525558 1.181534 -16.405799 1.915234 10.500048 30.883339 -3.478532 14.598299 -17.329481 0.079700 -1.821100 -5.011400 18.029087 4.140894 -19.482957 -2.074268 -11.247759 33.204532 -0.634814 -0.642663 -8.636866 -0.024900 1.017900 -2.798100 2.214461 -2.155099 -4.475819 -6.343406 -0.560786 6.206416 16.025198 -19.593450 3.222753 8.516200 -9.479500 4.033100 -86.239907 -2.768140 29.057867 4.105183 -16.284262 -0.943712 -0.302918 -0.398885 -0.103559 -7.125000 0.000000 0.000000 97.164215 -1.635603 23.494666 -13.857614 27.040881 -3.588353 0.224437 -0.540867 -0.537923 7.125000 0.000000 0.000000 
-3.656848 17.820851 -5.385790 -6.690091 3.447267 6.639909 -5.492757 1.131760 -16.382818 1.915087 10.498930 30.875465 -3.469552 14.550164 -17.242202 0.081600 -1.842500 -5.070600 18.055699 4.072967 -19.468083 -2.075542 -11.250030 33.209951 -0.621593 -0.704072 -8.704770 -0.024700 1.013800 -2.786800 2.216156 -2.156155 -4.475501 -6.336384 -0.560656 6.210302 16.035979 -19.665900 3.234711 8.517900 -9.518100 4.045900 -86.218323 -2.695480 29.076618 4.157090 -16.375718 -0.957586 -0.302225 -0.400277 -0.287222 -7.125000 0.000000 0.000000 97.145139 -1.588448 23.663274 -13.960812 27.159731 -3.626606 0.225581 -0.544935 -0.619657 7.125000 0.000000 0.000000 
-3.663353 17.820438 -5.381867 -6.684690 3.606387 6.610333 -5.459036 1.083729 -16.356213 1.914904 10.497839 30.867626 -3.459787 14.500782 -17.157556 0.083400 -1.862700 -5.126400 18.083932 4.005755 -19.449363 -2.076950 -11.252476 33.215806 -0.608585 -0.764185 -8.772162 -0.024500 1.009700 -2.775400 2.217616 -2.154909 -4.474024 -6.331173 -0.559067 6.217002 16.047268 -19.738045 3.248468 8.518900 -9.555900 4.061600 -86.198288 -2.630052 29.103159 4.213864 -16.474656 -0.972922 -0.300894 -0.401918 -0.478245 -7.125000 0.000000 0.000000 97.126997 -1.537867 23.830331 -14.059559 27.273095 -3.663447 0.226551 -0.549003 -0.709180 7.125000 0.000000 0.000000 
-3.669652 17.819818 -5.377840 -6.678672 3.761289 6.578722 -5.427436 1.040257 -16.328076 1.914845 10.496657 30.859839 -3.450676 14.453584 -17.073146 0.085500 -1.886600 -5.192300 18.110235 3.939436 -19.428313 -2.078348 -11.255073 33.222085 -0.596070 -0.822259 -8.838742 -0.024300 1.006600 -2.767100 2.218687 -2.152802 -4.471935 -6.327360 -0.556876 6.225236 16.058782 -19.809472 3.265972 8.519100 -9.592800 4.081100 -86.179449 -2.570321 29.131682 4.276749 -16.583173 -0.990425 -0.298790 -0.403783 -0.682430 -7.125000 0.000000 0.000000 97.108953 -1.485085 23.999957 -14.155020 27.382553 -3.699024 0.227257 -0.553009 -0.806539 7.125000 0.000000 0.000000 
-3.675847 17.819199 -5.373813 -6.672566 3.912555 6.545244 -5.396740 1.000671 -16.298378 1.914672 10.495391 30.851610 -3.440783 14.404434 -16.989356 0.087700 -1.909600 -5.255800 18.135839 3.877041 -19.404131 -2.080040 -11.257961 33.229492 -0.583503 -0.881296 -8.907080 -0.024200 1.003800 -2.759200 2.219482 -2.149129 -4.469171 -6.323706 -0.553776 6.235251 16.072241 -19.880787 3.285216 8.519800 -9.629500 4.102900 -86.162358 -2.515275 29.161874 4.343934 -16.698360 -1.009297 -0.296219 -0.405850 -0.894081 -7.125000 0.000000 0.000000 97.091288 -1.432252 24.171195 -14.246727 27.487430 -3.733113 0.227963 -0.556687 -0.914511 7.125000 0.000000 0.000000 
